<?xml version="1.0" encoding="UTF-8"?>
<svg id="Layer_2" data-name="Layer 2" xmlns="http://www.w3.org/2000/svg" viewBox="0 0 1080 1080">
  <defs>
    <style>
      .cls-1 {
        fill: #fff;
      }

      .cls-2 {
        fill: #bdb8fe;
      }
    </style>
  </defs>
  <g id="Layer_1-2" data-name="Layer 1">
    <rect class="cls-2" x="0" y="0" width="1080" height="1080" rx="540" ry="540"/>
    <g>
      <path class="cls-1" d="m521.83,468.74h132.13c5.17,0,9.97,2.7,12.66,7.12l156.33,257.19c5.03,8.28-.93,18.87-10.61,18.87h-140.22c-4.37,0-8.42-2.3-10.66-6.05l-152.33-254.72c-5.9-9.87,1.21-22.42,12.71-22.42Z"/>
      <path class="cls-1" d="m434.32,328.08h118.21c16.09,0,25.9,17.68,17.4,31.34l-156.31,250.92h152.18c10.58,0,17.25,11.39,12.06,20.62l-64.03,113.91c-2.45,4.36-7.06,7.06-12.06,7.06h-152.24c-15.24,0-29.24-8.38-36.44-21.81l-52.96-98.81c-6.96-12.98-6.48-28.68,1.25-41.22l155.49-252.26c3.73-6.05,10.34-9.74,17.45-9.74Z"/>
    </g>
  </g>
</svg>